<svg width="132" height="53" viewBox="0 0 132 53" fill="none" xmlns="http://www.w3.org/2000/svg">
<g opacity="0.77">
<path opacity="0.77" d="M133.223 -80.4326L1.21875 51.5719" stroke="white" stroke-width="1.89254" stroke-miterlimit="10"/>
<path opacity="0.77" d="M140.809 -80.4326L8.80469 51.5719" stroke="white" stroke-width="1.89254" stroke-miterlimit="10"/>
<path opacity="0.77" d="M148.391 -80.4326L16.3867 51.5719" stroke="white" stroke-width="1.89254" stroke-miterlimit="10"/>
<path opacity="0.77" d="M155.981 -80.4326L23.9766 51.5719" stroke="white" stroke-width="1.89254" stroke-miterlimit="10"/>
<path opacity="0.77" d="M163.571 -80.4326L31.5664 51.5719" stroke="white" stroke-width="1.89254" stroke-miterlimit="10"/>
<path opacity="0.77" d="M171.157 -80.4326L39.1523 51.5719" stroke="white" stroke-width="1.89254" stroke-miterlimit="10"/>
<path opacity="0.77" d="M178.739 -80.4326L46.7344 51.5719" stroke="white" stroke-width="1.89254" stroke-miterlimit="10"/>
<path opacity="0.77" d="M186.325 -80.4326L54.3203 51.5719" stroke="white" stroke-width="1.89254" stroke-miterlimit="10"/>
<path opacity="0.77" d="M193.919 -80.4326L61.9141 51.5719" stroke="white" stroke-width="1.89254" stroke-miterlimit="10"/>
<path opacity="0.77" d="M201.504 -80.4326L69.5 51.5719" stroke="white" stroke-width="1.89254" stroke-miterlimit="10"/>
<path opacity="0.77" d="M209.083 -80.4326L77.0781 51.5719" stroke="white" stroke-width="1.89254" stroke-miterlimit="10"/>
<path opacity="0.77" d="M216.676 -80.4326L84.6719 51.5719" stroke="white" stroke-width="1.89254" stroke-miterlimit="10"/>
<path opacity="0.77" d="M224.262 -80.4326L92.2578 51.5719" stroke="white" stroke-width="1.89254" stroke-miterlimit="10"/>
<path opacity="0.77" d="M231.84 -80.4326L99.8359 51.5719" stroke="white" stroke-width="1.89254" stroke-miterlimit="10"/>
<path opacity="0.77" d="M239.434 -80.4326L107.43 51.5719" stroke="white" stroke-width="1.89254" stroke-miterlimit="10"/>
<path opacity="0.77" d="M247.02 -80.4326L115.016 51.5719" stroke="white" stroke-width="1.89254" stroke-miterlimit="10"/>
<path opacity="0.77" d="M254.614 -80.4326L122.609 51.5719" stroke="white" stroke-width="1.89254" stroke-miterlimit="10"/>
<path opacity="0.77" d="M262.188 -80.4326L130.184 51.5719" stroke="white" stroke-width="1.89254" stroke-miterlimit="10"/>
</g>
</svg>
