<svg width="210" height="25" viewBox="0 0 210 25" fill="none" xmlns="http://www.w3.org/2000/svg">
<path fill-rule="evenodd" clip-rule="evenodd" d="M18.9786 24.342C22.6485 24.8642 29.9549 24.9323 50.7687 24.6372C65.757 24.4249 72.2349 24.1631 87.1115 23.1688C109.258 21.6885 120.883 20.2973 145.468 16.1847C150.438 15.3532 158.233 14.1537 162.791 13.519C182.032 10.8391 203.933 5.78277 204.473 3.89545C204.546 3.63926 204.488 3.39669 204.343 3.35669C204.198 3.31669 202.377 3.81554 200.296 4.46487C196.76 5.56857 193.723 6.32794 193.788 6.09225C193.804 6.03566 194.81 5.70249 196.025 5.35166C197.24 5.00102 200.083 4.11303 202.343 3.3787C204.604 2.64411 207.038 1.91032 207.754 1.74762C209.073 1.44811 209.648 0.800577 208.803 0.567C207.956 0.33309 204.407 1.02672 199.478 2.38945C194.055 3.88872 174.263 8.39763 167.079 9.77055C159.655 11.1893 151.94 12.3559 146.896 12.8223C118.929 15.4088 107.338 15.9674 87.8697 15.6673C60.8373 15.2506 45.2246 14.2758 24.7422 11.7259C15.9439 10.6307 7.87128 9.38806 5.7557 8.80332C4.64323 8.49584 4.12605 8.50201 3.51522 8.83051C2.39594 9.43249 1.23536 10.8781 0.90146 12.0862C0.661323 12.955 0.738188 13.2159 1.39602 13.768C2.97175 15.0905 3.77965 15.1902 27.7648 17.0244C47.3816 18.5243 60.3045 19.069 77.9715 19.1408C81.1677 19.154 83.8923 19.2017 84.0264 19.2471C84.4462 19.3898 72.0422 19.8616 65.7253 19.9435C57.9676 20.0441 40.1379 19.6679 32.0803 19.2337C26.1334 18.9133 25.6618 18.8462 22.8483 17.9237C20.0071 16.9922 19.8495 16.9705 19.0798 17.4091C17.9287 18.0649 16.2196 20.2044 15.8878 21.4048C15.6315 22.332 15.7053 22.5156 16.6514 23.3015C17.2275 23.7799 17.8109 24.1848 17.9476 24.201C18.0846 24.2173 18.5484 24.2806 18.9786 24.342Z" fill="#4436AC"/>
</svg>
