<svg width="44" height="44" viewBox="0 0 44 44" fill="none" xmlns="http://www.w3.org/2000/svg">
<path d="M3.38795 23.9352H11.088L12.2327 33.3077C12.2773 33.7477 12.628 34.0553 13.068 34.1H13.1126C13.508 34.1 13.8603 33.8353 13.9479 33.44L18.3479 16.4125L23.0128 31.8573C23.1452 32.2527 23.4975 32.5173 23.9375 32.4726C24.3328 32.428 24.6852 32.1203 24.7299 31.6803L25.6546 23.4954H33.5746C34.0593 23.4954 34.4546 23.1001 34.4546 22.6154V22.5707C34.4546 22.526 34.4546 22.4384 34.4099 22.3954C34.4099 22.3507 34.4099 22.3507 34.3652 22.3078C34.3652 22.2631 34.3205 22.2201 34.3205 22.1754C34.3205 22.1754 34.3205 22.1307 34.2758 22.1307C34.2311 22.086 34.1882 22.0431 34.1435 21.9554L34.0988 21.9107C34.0541 21.866 34.0111 21.866 33.9665 21.8231H33.9218C31.5018 20.5478 27.9369 17.4231 27.4969 14.8279C27.3645 13.9479 27.5845 13.1556 28.2445 12.4956C29.6522 11.0003 31.6322 11.9679 33.0397 13.0232C33.3473 13.2432 33.7873 13.2432 34.0949 13.0232C35.5026 11.9679 37.4397 11.0432 38.8474 12.5385C39.375 13.1109 39.6397 13.7262 39.6397 14.4738C39.5951 15.8815 38.5397 17.5985 36.6474 19.3587C36.295 19.7111 36.2521 20.2387 36.6027 20.5911C36.955 20.9434 37.4827 20.9864 37.8351 20.6358C39.4198 19.1834 41.3104 16.8958 41.3998 14.5206C41.4444 13.333 41.0044 12.233 40.1245 11.353C38.4521 9.59298 36.0768 9.59298 33.5693 11.3083C31.017 9.593 28.6418 9.63594 26.9693 11.353C25.957 12.4083 25.517 13.773 25.7817 15.1806C26.177 17.5559 28.377 20.0655 30.6217 21.7806H24.9479C24.5079 21.7806 24.1126 22.133 24.0679 22.573L23.5403 27.3254L19.185 12.9379C19.0526 12.5425 18.745 12.3226 18.305 12.3226C17.9096 12.3226 17.5573 12.5873 17.4697 12.9826L13.465 28.5577L12.7603 22.9684C12.7156 22.5284 12.3203 22.176 11.8803 22.176H3.38781C2.90311 22.176 2.50781 22.5713 2.50781 23.056C2.50781 23.5407 2.90484 23.936 3.38781 23.936L3.38795 23.9352Z" fill="black"/>
</svg>
