<svg width="40" height="40" viewBox="0 0 40 40" fill="none" xmlns="http://www.w3.org/2000/svg">
<path d="M19.9968 10.0826L13.428 12.1795C13.3983 13.9139 13.3233 15.6123 13.253 17.3187C13.2186 18.1031 13.1889 18.8953 13.1593 19.6625L13.153 19.75C13.1061 20.9562 13.0483 22.55 13.4639 23.6046C13.6389 24.0562 13.9327 24.4781 14.2671 24.864C14.6249 25.2734 15.0343 25.6484 15.4327 25.9952C16.8327 27.2077 18.4327 28.3624 19.9907 29.4702C21.5548 28.3624 23.1548 27.214 24.5487 25.9952C24.9471 25.6499 25.3565 25.2749 25.7143 24.864C26.0534 24.4781 26.3409 24.0562 26.5175 23.6046C26.9331 22.5437 26.8753 20.95 26.8284 19.75L26.8221 19.6625C26.7925 18.9015 26.7581 18.1093 26.7284 17.3187C26.6581 15.614 26.5815 13.914 26.5534 12.1795L19.9846 10.0826H19.9968ZM12.6264 11.1248L19.8044 8.83418C19.9216 8.79355 20.056 8.79355 20.1857 8.83418L27.3513 11.1185C27.6091 11.1889 27.8028 11.4295 27.8075 11.7107C27.8309 13.5498 27.9122 15.4014 27.9887 17.2655C28.0231 18.0327 28.0528 18.8062 28.0825 19.6155L28.0887 19.703C28.1419 21.0218 28.2059 22.7671 27.6903 24.0622C27.4559 24.6544 27.0872 25.1935 26.6653 25.6794C26.2606 26.1482 25.8044 26.5638 25.37 26.9388C23.8231 28.281 22.0715 29.5279 20.378 30.7232L20.367 30.7341C20.1561 30.8919 19.8639 30.9044 19.6343 30.7403L19.6108 30.7232C17.9171 29.5216 16.1655 28.2794 14.6188 26.9388C14.186 26.5638 13.7345 26.1482 13.3235 25.6794C12.9016 25.1935 12.5329 24.6544 12.2985 24.0622C11.7891 22.7669 11.8532 21.0216 11.9063 19.703L11.9126 19.6155C11.9422 18.8124 11.9766 18.039 12.0063 17.2655C12.0876 15.4031 12.1641 13.5562 12.1876 11.7107C12.1938 11.4467 12.3579 11.2076 12.6204 11.1248H12.6264Z" fill="black"/>
<path d="M20.1916 5.66554L30.0636 8.8171C30.3277 8.89835 30.4964 9.14522 30.4964 9.4093C30.4964 12.814 30.6245 15.4157 30.7245 17.5001C31.1573 26.3937 31.1636 26.5237 20.3541 34.2517C20.126 34.4095 19.8322 34.3986 19.6213 34.2455C8.82933 26.5235 8.83533 26.4003 9.26213 17.5062C9.36213 15.414 9.49025 12.8126 9.49025 9.41545C9.49025 9.11701 9.70119 8.86545 9.98245 8.80609L19.8072 5.67173C19.9354 5.6311 20.0713 5.63735 20.1885 5.67173L20.1916 5.66554ZM29.2556 9.86074L20.004 6.90762L10.7524 9.86074C10.7415 13.0076 10.618 15.5199 10.518 17.5591C10.1258 25.6919 10.1133 25.9027 20.004 32.9747C29.8948 25.8967 29.882 25.6855 29.49 17.5591C29.39 15.5201 29.2681 13.0059 29.2556 9.86074H29.2556Z" fill="black"/>
<path d="M24.5608 16.6623C24.8061 16.4169 25.1998 16.4169 25.4451 16.6623C25.6904 16.9076 25.6904 17.3013 25.4451 17.5466L18.9359 24.0558C18.6906 24.3011 18.2968 24.3011 18.0516 24.0558L14.5531 20.5574C14.3078 20.3121 14.3078 19.9183 14.5531 19.673C14.7984 19.4277 15.1922 19.4277 15.4375 19.673L18.4953 22.7308L24.5657 16.6604L24.5608 16.6623Z" fill="black"/>
<path d="M9.80845 21.9248C10.1538 21.9248 10.435 22.206 10.435 22.5513C10.435 22.8966 10.1538 23.1779 9.80845 23.1779H4.99765C4.65234 23.1779 4.37109 22.8966 4.37109 22.5513V13.1249C4.37109 12.7796 4.65234 12.4984 4.99765 12.4984H9.95405C10.2994 12.4984 10.5806 12.7796 10.5806 13.1249C10.5806 13.4702 10.2994 13.7515 9.95405 13.7515H5.62445V21.9251L9.80845 21.9248ZM30.0397 13.7512C29.6943 13.7512 29.4131 13.4699 29.4131 13.1246C29.4131 12.7793 29.6943 12.498 30.0397 12.498H34.996C35.3414 12.498 35.6226 12.7793 35.6226 13.1246V22.551C35.6226 22.8963 35.3414 23.1776 34.996 23.1776H30.1853C29.8399 23.1776 29.5587 22.8963 29.5587 22.551C29.5587 22.2057 29.8399 21.9244 30.1853 21.9244H34.368V13.7508H30.0385L30.0397 13.7512Z" fill="black"/>
</svg>
